<svg width="40" height="38" viewBox="0 0 40 38" fill="none" xmlns="http://www.w3.org/2000/svg">
<path d="M5 16C4.13333 16 3.41667 15.7167 2.85 15.15C2.28333 14.5833 2 13.8667 2 13C2 12.1333 2.28333 11.4167 2.85 10.85C3.41667 10.2833 4.13333 10 5 10C5.86667 10 6.58333 10.2833 7.15 10.85C7.71667 11.4167 8 12.1333 8 13C8 13.8667 7.71667 14.5833 7.15 15.15C6.58333 15.7167 5.86667 16 5 16ZM2 38V28H0V20C0 19.4333 0.191667 18.9583 0.575 18.575C0.958333 18.1917 1.43333 18 2 18H8C8.56667 18 9.04167 18.1917 9.425 18.575C9.80833 18.9583 10 19.4333 10 20V28H8V34H24V24H20.5C18.1333 24 16.125 23.175 14.475 21.525C12.825 19.875 12 17.8667 12 15.5C12 13.7333 12.475 12.1583 13.425 10.775C14.375 9.39167 15.6 8.36667 17.1 7.7C17.4667 5.53333 18.475 3.70833 20.125 2.225C21.775 0.741667 23.7333 0 26 0C28.2667 0 30.225 0.741667 31.875 2.225C33.525 3.70833 34.5333 5.53333 34.9 7.7C36.4 8.36667 37.625 9.39167 38.575 10.775C39.525 12.1583 40 13.7333 40 15.5C40 17.8667 39.175 19.875 37.525 21.525C35.875 23.175 33.8667 24 31.5 24H28V34H38V38H2ZM20.5 20H31.5C32.7667 20 33.8333 19.5667 34.7 18.7C35.5667 17.8333 36 16.7667 36 15.5C36 14.6 35.7583 13.7833 35.275 13.05C34.7917 12.3167 34.1333 11.7667 33.3 11.4L31.2 10.5L30.9 8.3C30.7 7.06667 30.1417 6.04167 29.225 5.225C28.3083 4.40833 27.2333 4 26 4C24.7667 4 23.6917 4.40833 22.775 5.225C21.8583 6.04167 21.3 7.06667 21.1 8.3L20.8 10.5L18.7 11.4C17.8667 11.7667 17.2083 12.3167 16.725 13.05C16.2417 13.7833 16 14.6 16 15.5C16 16.7667 16.4333 17.8333 17.3 18.7C18.1667 19.5667 19.2333 20 20.5 20Z" fill="#5D4201"/>
</svg>
