<svg width="97" height="99" viewBox="0 0 97 99" fill="none" xmlns="http://www.w3.org/2000/svg">
<path d="M5.33333 98.698V82.698H21.8667L8.26667 38.1647C5.86667 36.8314 3.88889 34.8758 2.33333 32.298C0.777778 29.7203 0 26.9647 0 24.0314C0 19.5869 1.55556 15.8092 4.66667 12.698C7.77778 9.58693 11.5556 8.03137 16 8.03137C19.4667 8.03137 22.5556 9.03137 25.2667 11.0314C27.9778 13.0314 29.8667 15.5869 30.9333 18.698H48V13.3647C48 11.8536 48.5111 10.5869 49.5333 9.56471C50.5556 8.54248 51.8222 8.03137 53.3333 8.03137C54.1333 8.03137 54.9111 8.20915 55.6667 8.56471C56.4222 8.92026 57.0667 9.4536 57.6 10.1647L66.6667 1.63137C67.4667 0.831373 68.4222 0.320261 69.5333 0.0980392C70.6444 -0.124183 71.7333 0.0313725 72.8 0.564706L93.6 10.1647C94.6667 10.698 95.4 11.4758 95.8 12.498C96.2 13.5203 96.1778 14.5203 95.7333 15.498C95.2 16.5647 94.4222 17.2536 93.4 17.5647C92.3778 17.8758 91.3778 17.8092 90.4 17.3647L71.2 8.56471L58.6667 20.298V27.7647L71.2 39.2314L90.4 30.4314C91.3778 29.9869 92.4 29.9425 93.4667 30.298C94.5333 30.6536 95.2889 31.3203 95.7333 32.298C96.2667 33.3647 96.3111 34.3869 95.8667 35.3647C95.4222 36.3425 94.6667 37.098 93.6 37.6314L72.8 47.498C71.7333 48.0314 70.6444 48.1869 69.5333 47.9647C68.4222 47.7425 67.4667 47.2314 66.6667 46.4314L57.6 37.898C57.0667 38.4314 56.4222 38.9203 55.6667 39.3647C54.9111 39.8091 54.1333 40.0314 53.3333 40.0314C51.8222 40.0314 50.5556 39.5203 49.5333 38.498C48.5111 37.4758 48 36.2092 48 34.698V29.3647H30.9333C30.6667 30.0758 30.3778 30.7425 30.0667 31.3647C29.7556 31.9869 29.3333 32.6536 28.8 33.3647L55.4667 82.698H74.6667V98.698H5.33333ZM16 29.3647C17.5111 29.3647 18.7778 28.8536 19.8 27.8314C20.8222 26.8092 21.3333 25.5425 21.3333 24.0314C21.3333 22.5203 20.8222 21.2536 19.8 20.2314C18.7778 19.2092 17.5111 18.698 16 18.698C14.4889 18.698 13.2222 19.2092 12.2 20.2314C11.1778 21.2536 10.6667 22.5203 10.6667 24.0314C10.6667 25.5425 11.1778 26.8092 12.2 27.8314C13.2222 28.8536 14.4889 29.3647 16 29.3647ZM32.8 82.698H43.2L20.2667 40.0314C20.2667 40.0314 20.1778 40.0314 20 40.0314C19.8222 40.0314 19.7333 40.0314 19.7333 40.0314L32.8 82.698Z" fill="white"/>
</svg>
