<svg width="52" height="50" viewBox="0 0 52 50" fill="none" xmlns="http://www.w3.org/2000/svg">
<path d="M25 50C21.5417 50 18.2917 49.3438 15.25 48.0312C12.2083 46.7188 9.5625 44.9375 7.3125 42.6875C5.0625 40.4375 3.28125 37.7917 1.96875 34.75C0.65625 31.7083 0 28.4583 0 25C0 21.5417 0.65625 18.2917 1.96875 15.25C3.28125 12.2083 5.0625 9.5625 7.3125 7.3125C9.5625 5.0625 12.2083 3.28125 15.25 1.96875C18.2917 0.65625 21.5417 0 25 0C31.0833 0 36.4062 1.90625 40.9688 5.71875C45.5312 9.53125 48.375 14.3125 49.5 20.0625H44.375C43.5833 17.0208 42.1562 14.3021 40.0938 11.9062C38.0312 9.51042 35.5 7.70833 32.5 6.5V7.5C32.5 8.875 32.0104 10.0521 31.0312 11.0312C30.0521 12.0104 28.875 12.5 27.5 12.5H22.5V17.5C22.5 18.2083 22.2604 18.8021 21.7812 19.2812C21.3021 19.7604 20.7083 20 20 20H15V25H20V32.5H17.5L5.5 20.5C5.375 21.25 5.26042 22 5.15625 22.75C5.05208 23.5 5 24.25 5 25C5 30.4583 6.91667 35.1458 10.75 39.0625C14.5833 42.9792 19.3333 44.9583 25 45V50V50M47.75 48.75L39.75 40.75C38.875 41.25 37.9375 41.6667 36.9375 42C35.9375 42.3333 34.875 42.5 33.75 42.5C30.625 42.5 27.9688 41.4062 25.7812 39.2188C23.5938 37.0312 22.5 34.375 22.5 31.25C22.5 28.125 23.5938 25.4688 25.7812 23.2812C27.9688 21.0938 30.625 20 33.75 20C36.875 20 39.5312 21.0938 41.7188 23.2812C43.9062 25.4688 45 28.125 45 31.25C45 32.375 44.8333 33.4375 44.5 34.4375C44.1667 35.4375 43.75 36.375 43.25 37.25L51.25 45.25L47.75 48.75V48.75M33.75 37.5C35.5 37.5 36.9792 36.8958 38.1875 35.6875C39.3958 34.4792 40 33 40 31.25C40 29.5 39.3958 28.0208 38.1875 26.8125C36.9792 25.6042 35.5 25 33.75 25C32 25 30.5208 25.6042 29.3125 26.8125C28.1042 28.0208 27.5 29.5 27.5 31.25C27.5 33 28.1042 34.4792 29.3125 35.6875C30.5208 36.8958 32 37.5 33.75 37.5V37.5" fill="white"/>
</svg>
