<svg width="50" height="55" viewBox="0 0 50 55" fill="none" xmlns="http://www.w3.org/2000/svg">
<path d="M2.5 31.25L22.5 2.5V31.25H2.5V31.25M12.0625 26.25H17.5V18.4375L12.0625 26.25V26.25M26.25 31.25C26.75 30.0833 27.2917 28.0417 27.875 25.125C28.4583 22.2083 28.75 19.25 28.75 16.25C28.75 13.25 28.4688 10.1667 27.9062 7C27.3438 3.83333 26.7917 1.5 26.25 0C28.7917 0.75 31.3229 2.14583 33.8438 4.1875C36.3646 6.22917 38.6354 8.66667 40.6562 11.5C42.6771 14.3333 44.3229 17.4479 45.5938 20.8438C46.8646 24.2396 47.5 27.7083 47.5 31.25H26.25V31.25M32.75 26.25H42C41.2917 23.0417 40.1354 20.1042 38.5312 17.4375C36.9271 14.7708 35.2292 12.5 33.4375 10.625C33.5208 11.5 33.5938 12.4062 33.6562 13.3438C33.7188 14.2812 33.75 15.25 33.75 16.25C33.75 18.2083 33.6562 20.0208 33.4688 21.6875C33.2812 23.3542 33.0417 24.875 32.75 26.25V26.25M17.5 45C16 45 14.6042 44.6458 13.3125 43.9375C12.0208 43.2292 10.9167 42.3333 10 41.25C9.41667 41.875 8.78125 42.4583 8.09375 43C7.40625 43.5417 6.64583 43.9792 5.8125 44.3125C4.35417 43.2292 3.11458 41.8854 2.09375 40.2812C1.07292 38.6771 0.375 36.9167 0 35H50C49.625 36.9167 48.9271 38.6771 47.9062 40.2812C46.8854 41.8854 45.6458 43.2292 44.1875 44.3125C43.3542 43.9792 42.5938 43.5417 41.9062 43C41.2188 42.4583 40.5833 41.875 40 41.25C39.0417 42.3333 37.9271 43.2292 36.6562 43.9375C35.3854 44.6458 34 45 32.5 45C31 45 29.6042 44.6458 28.3125 43.9375C27.0208 43.2292 25.9167 42.3333 25 41.25C24.0833 42.3333 22.9792 43.2292 21.6875 43.9375C20.3958 44.6458 19 45 17.5 45V45M0 55V50H2.5C3.83333 50 5.13542 49.7917 6.40625 49.375C7.67708 48.9583 8.875 48.3333 10 47.5C11.125 48.3333 12.3229 48.9479 13.5938 49.3438C14.8646 49.7396 16.1667 49.9375 17.5 49.9375C18.8333 49.9375 20.125 49.7396 21.375 49.3438C22.625 48.9479 23.8333 48.3333 25 47.5C26.125 48.3333 27.3229 48.9479 28.5938 49.3438C29.8646 49.7396 31.1667 49.9375 32.5 49.9375C33.8333 49.9375 35.125 49.7396 36.375 49.3438C37.625 48.9479 38.8333 48.3333 40 47.5C41.1667 48.3333 42.375 48.9583 43.625 49.375C44.875 49.7917 46.1667 50 47.5 50H50V55H47.5C46.2083 55 44.9375 54.8438 43.6875 54.5312C42.4375 54.2188 41.2083 53.75 40 53.125C38.7917 53.75 37.5625 54.2188 36.3125 54.5312C35.0625 54.8438 33.7917 55 32.5 55C31.2083 55 29.9375 54.8438 28.6875 54.5312C27.4375 54.2188 26.2083 53.75 25 53.125C23.7917 53.75 22.5625 54.2188 21.3125 54.5312C20.0625 54.8438 18.7917 55 17.5 55C16.2083 55 14.9375 54.8438 13.6875 54.5312C12.4375 54.2188 11.2083 53.75 10 53.125C8.79167 53.75 7.5625 54.2188 6.3125 54.5312C5.0625 54.8438 3.79167 55 2.5 55H0V55M17.5 26.25V26.25V26.25V26.25V26.25M32.75 26.25V26.25V26.25V26.25V26.25V26.25V26.25V26.25V26.25" fill="white"/>
</svg>
