<svg width="36" height="27" viewBox="0 0 36 27" fill="none" xmlns="http://www.w3.org/2000/svg">
<path d="M3 27C2.175 27 1.46875 26.7062 0.88125 26.1187C0.29375 25.5312 0 24.825 0 24V13.5H3V24V24V24H16.5V27H3V27M9 21C8.175 21 7.46875 20.7062 6.88125 20.1187C6.29375 19.5312 6 18.825 6 18V7.5H9V18V18V18H22.5V21H9V21M15 15C14.175 15 13.4688 14.7062 12.8813 14.1187C12.2938 13.5312 12 12.825 12 12V3C12 2.175 12.2938 1.46875 12.8813 0.88125C13.4688 0.29375 14.175 0 15 0H27C27.825 0 28.5312 0.29375 29.1187 0.88125C29.7062 1.46875 30 2.175 30 3V12C30 12.825 29.7062 13.5312 29.1187 14.1187C28.5312 14.7062 27.825 15 27 15H15V15M15 12H27V12V12V6H15V12V12V12V12" fill="#002046"/>
</svg>
